<?xml version="1.0" encoding="utf-8"?>
<!-- Generator: Adobe Illustrator 19.1.0, SVG Export Plug-In . SVG Version: 6.00 Build 0)  -->
<svg version="1.1" id="Calque_1" xmlns="http://www.w3.org/2000/svg" xmlns:xlink="http://www.w3.org/1999/xlink" x="0px" y="0px"
	 viewBox="-147 270.9 300 300" style="enable-background:new -147 270.9 300 300;" xml:space="preserve">
<g>
	<path d="M124.3,303.4H84.7v-18.3c0-5.1-4.1-9.1-9.1-9.1c-5.1,0-9.1,4.1-9.1,9.1v18.3H11.6v-18.3c0-5.1-4.1-9.1-9.1-9.1
		c-5,0-9.1,4.1-9.1,9.1v18.3h-54.8v-18.3c0-5.1-4.1-9.1-9.1-9.1c-5,0-9.1,4.1-9.1,9.1v18.3h-39.6c-13.5,0-24.4,10.9-24.4,24.4v216.2
		c0,13.5,10.9,24.4,24.4,24.4h243.6c13.5,0,24.4-10.9,24.4-24.4V327.7C148.7,314.3,137.8,303.4,124.3,303.4z M130.4,543.9
		c0,3.4-2.7,6.1-6.1,6.1h-243.6c-3.4,0-6.1-2.7-6.1-6.1V327.7c0-3.4,2.7-6.1,6.1-6.1h39.6v18.3c0,5.1,4.1,9.1,9.1,9.1
		c5,0,9.1-4.1,9.1-9.1v-18.3h54.8v18.3c0,5.1,4.1,9.1,9.1,9.1c5,0,9.1-4.1,9.1-9.1v-18.3h54.8v18.3c0,5.1,4.1,9.1,9.1,9.1
		c5.1,0,9.1-4.1,9.1-9.1v-18.3h39.6c3.4,0,6.1,2.7,6.1,6.1L130.4,543.9L130.4,543.9z"/>
	<rect x="-79.7" y="385.6" width="36.5" height="27.4"/>
	<rect x="-79.7" y="431.3" width="36.5" height="27.4"/>
	<rect x="-79.7" y="476.9" width="36.5" height="27.4"/>
	<rect x="-15.8" y="476.9" width="36.5" height="27.4"/>
	<rect x="-15.8" y="431.3" width="36.5" height="27.4"/>
	<rect x="-15.8" y="385.6" width="36.5" height="27.4"/>
	<rect x="48.2" y="476.9" width="36.6" height="27.4"/>
	<rect x="48.2" y="431.3" width="36.6" height="27.4"/>
	<rect x="48.2" y="385.6" width="36.6" height="27.4"/>
</g>
</svg>
